<svg xmlns="http://www.w3.org/2000/svg" viewBox="0 0 1000 1000"><g id="Layer_2" data-name="Layer 2"><path d="M560.62,780.51a3.41,3.41,0,0,1-2.74,5.45H229a15,15,0,0,1-15-15V325a3.41,3.41,0,0,1,6.14-2h0l55.93,74.93,119.74,161,39.63,53.29Z"/><path d="M720.05,786H648.29a4.12,4.12,0,0,1-3.31-1.67L481.18,564l-39.63-53.28L225.73,220.48A4,4,0,0,1,229,214H713.37a4.13,4.13,0,0,1,3,7L533.26,414.06l-37,39a15,15,0,0,0-1.15,19.27l32.07,43.16,196.2,263.84A4.13,4.13,0,0,1,720.05,786Z"/><path d="M786,280.32V708.6c0,14.44-18.41,20.54-27,8.95L580.42,477.47a15,15,0,0,1,1.15-19.27L760.08,270C769.41,260.16,786,266.77,786,280.32Z"/></g></svg>